<svg opacity=".3" fill="#F48264" xmlns="http://www.w3.org/2000/svg" viewBox="0 0 950.51 953.41"><title>Asset 1</title><g id="Layer_2" data-name="Layer 2"><g id="Layer_1-2" data-name="Layer 1"><path d="M883.66,338.78c-2.7.25-4.62-.32-5-3.61-.64-5,16.39-24.82,21.25-24.23,2.61.32,5.3,2.41,4.19,4.88C899.71,325.51,894.73,334.92,883.66,338.78Z"/><path d="M0,860.1V818.16C6.15,832.11,5.31,846.09,0,860.1Z"/><path d="M6,773.19q1.68,4,3.35,8c0,7.9-1.26,15.44-6.33,25.87C1.2,793,.43,782.8,6,773.19Z"/><path d="M36.82,941.49l-3.59,3.4c-8.09-5.08-10.2-15.43-17.87-21.23C26.5,924.72,30.58,934.47,36.82,941.49Z"/><path d="M945.58,146.1c2.66-3.14,7.22-5.84,3.57-11.34-7.24-.89-12,4.15-16.2,8.17C896.32,178,863.88,217,831.18,255.61c-6.23,7.37-11.37,13.14-21.43,12.62-9.88-.52-11.66-8.55-14.46-15.45-8.31-20.49-15.95-41.26-24.72-61.55-13.56-31.34-28.6-62-46.11-91.35-4-6.7-9.05-12.67-18-11.89s-9.74,8.75-12.46,15c-7.11,16.24-13.22,33-21.61,48.57-12.87,23.87-24.75,48.71-47.56,65.56-21.4,15.81-34.75,10.1-39.68-15.56-7.19-37.42-8.81-75.28-10.32-113.09-1-23.75-9-50.16,17.26-67.74,4.77-3.2,10.2-8.76,8.49-15.82C599.29-.59,593.46.08,589.27.64c-7.5,1-18-4.78-21.57,6.24-5.76,17.75-19.88,28.35-33.61,37.66-59.22,40.15-115.54,83.93-170.18,130-6.26,5.28-13.24,9.76-22.38,8.84-21.77-2.19-33.62,4.47-38.63,27-5.21,23.4-17.55,41.78-32.37,59.34-14.21,16.83-29.48,32.86-42.58,50.5-21.13,28.46-40.37,58.32-61.39,86.87-11.52,15.66-19.72,14-26-3.75-8.18-23.2-15.1-46.88-24-69.78-18.71-48-40.93-94.16-75.92-132.85-3.34-3.69-7.2-12.3-13-7.62-6.3,5.1-.12,11.48,3.89,16.31C45.33,226,59.36,242.33,69.47,261.61A874.35,874.35,0,0,1,135.34,427c5.15,18,3.47,33.17-5.75,46.66C95.83,523.05,69.16,576.15,47.54,631.51,29.64,677.34,12.6,723.85,6,773.19c-1.18,3.62-3.66,7.79,3.35,8,9.82-46.54,26-91.23,41.38-136,17.78-51.63,47.81-97.65,72-146.37,2.46-5,6.84-9.07,10.72-13.21,7.14-7.61,11.77-5.45,17.63,2.84,7.22,10.23,5,21.67,7.58,32.41a728.46,728.46,0,0,1,19.23,197.53c-2.57,69.28-19.07,134-60.12,191.07-20.12,28-46.71,39.61-80.9,32-3.49-1.29-4.7-.17-3.59,3.4,26,13.38,53.77,11.24,73.83-8.12,43-41.54,66.86-94,76-151.85,5.71-36,4.5-73.19,4.22-110.1-.51-65.3-12.16-128.51-27.16-191.35-5.49-23-4-42.45,9.64-62.78,31.09-46.42,62.43-92.49,99.27-134.69,9.16-10.49,17.53-14.25,29.06-5.81,16,11.69,32.34,7.05,43.17-4.65,19.17-20.71,40.4-40.34,52.47-66.84,2.16-4.74,4.84-10.31.34-14.13-19.78-16.81-4-26.83,7.53-35.62C445,125.88,488.91,93.59,532.81,61.26c16.25-12,25.4-8.41,27.53,12.28,2.07,20.08.79,40.49,1.72,60.72,1.56,34-.54,68.81,19.23,99.21,12.27,18.86,47.34,22.52,59,4,14.4-22.93,34-42.52,43.71-68.57A289.12,289.12,0,0,1,700.8,132.8c7.59-14.09,20.38-14.69,27-.76,23.74,50.25,49.51,99.66,65.36,153.29,3.22,10.87,3.24,20.76-3.39,30.79-6.94,10.5-12.32,22-18.73,32.88-53.9,91.23-102.6,184.83-133.71,286.71-18.62,61-29.36,122-5.72,184.18,15.92,41.87,56.69,72.81,109.59,46.91,43.6-21.35,67.94-57.68,86.38-99.3,16.58-37.42,25.93-77.08,34.48-117.25,16.27-76.41,7.72-151.38-8-226-7-33.33-18.61-65.72-28.73-98.36-4.54-14.66-2.06-26.72,7.37-38.94C869.45,239.28,906.68,192,945.58,146.1ZM373.41,211.17c-2.64,12.94-41.9,46-54.5,45.67-7,0-8.8-3.24-6.33-9.6,3.78-9.7,10.06-17.93,18.54-23.22,10-6.25,21.31-10.33,29.36-19.7a8,8,0,0,1,10.39-1.49C373.68,204.63,374.1,207.76,373.41,211.17Zm474.72,276c2.84,24.56,6.64,49.09,4.07,74.05-2.44,84-17,164.85-62.43,237.55C774.63,823,754.18,841.66,728.42,854c-47.25,22.69-76.38-1.84-89-45.06-13.58-46.55-10.48-94.18,3.17-140.78A1232,1232,0,0,1,704,502.84c24.46-53.62,55.11-103.66,88.74-151.93,3.26-4.68,6.62-10.46,13-9.76,8,.88,10.47,8.09,13,14.75C834.7,398.3,842.94,442.42,848.13,487.19Z"/></g></g></svg>