<?xml version="1.0" standalone="no"?>
<!DOCTYPE svg PUBLIC "-//W3C//DTD SVG 20010904//EN"
 "http://www.w3.org/TR/2001/REC-SVG-20010904/DTD/svg10.dtd">
<svg version="1.0" xmlns="http://www.w3.org/2000/svg"
 width="953.000000pt" height="953.000000pt" viewBox="0 0 953.000000 953.000000"
 preserveAspectRatio="xMidYMid meet">
<metadata>
Created by potrace 1.11, written by Peter Selinger 2001-2013
</metadata>
<g transform="translate(0.000000,953.000000) scale(0.100000,-0.100000)"
fill="#000000" stroke="none">
<path d="M5729 9523 c-9 -2 -21 -14 -27 -26 -5 -12 -24 -51 -41 -87 -64 -137
-137 -205 -455 -422 -10 -7 -25 -19 -32 -26 -8 -7 -14 -11 -14 -7 0 4 -6 0
-14 -7 -8 -7 -30 -23 -48 -36 -18 -13 -56 -40 -85 -60 -28 -20 -61 -44 -73
-52 -69 -47 -266 -195 -268 -202 -2 -4 -10 -8 -17 -8 -7 0 -15 -3 -17 -8 -5
-11 -137 -112 -147 -112 -5 0 -11 -4 -13 -8 -1 -4 -66 -57 -143 -117 -77 -60
-147 -116 -156 -124 -9 -9 -29 -25 -45 -36 -15 -11 -36 -28 -46 -37 -10 -10
-21 -18 -24 -18 -3 0 -22 -16 -42 -35 -20 -19 -40 -35 -44 -35 -4 0 -15 -8
-25 -18 -10 -10 -52 -46 -93 -79 -41 -33 -88 -72 -103 -87 -15 -14 -30 -26
-32 -26 -5 0 -25 -16 -82 -67 -20 -17 -60 -44 -90 -58 -48 -25 -63 -27 -151
-26 -134 2 -191 -12 -252 -60 -27 -22 -50 -46 -50 -54 0 -8 -4 -15 -9 -15 -5
0 -11 -8 -14 -17 -3 -10 -13 -37 -21 -60 -9 -23 -18 -56 -21 -74 -3 -18 -8
-36 -11 -41 -3 -4 -7 -17 -10 -28 -2 -11 -6 -29 -8 -39 -5 -22 -86 -189 -117
-241 -43 -72 -181 -246 -313 -395 -20 -22 -36 -44 -36 -48 0 -5 -4 -5 -10 -2
-5 3 -10 1 -10 -5 0 -6 -6 -17 -12 -24 -7 -7 -32 -35 -55 -62 -23 -27 -51 -60
-63 -74 -12 -14 -36 -44 -53 -67 -17 -24 -34 -43 -39 -43 -4 0 -8 -5 -8 -11 0
-6 -20 -36 -43 -67 -24 -31 -86 -118 -138 -192 -51 -74 -97 -139 -101 -145 -5
-5 -63 -89 -129 -185 -67 -96 -126 -178 -133 -182 -6 -4 -7 -8 -1 -8 6 0 3 -6
-5 -13 -8 -7 -28 -31 -43 -54 -41 -59 -97 -117 -129 -131 -46 -19 -95 12 -130
83 -13 26 -61 161 -63 175 0 3 -5 19 -12 35 -23 61 -26 70 -30 90 -1 11 -7 29
-12 40 -6 11 -31 83 -56 160 -46 138 -84 241 -109 300 -8 17 -26 62 -41 100
-62 159 -191 431 -274 580 -95 169 -295 459 -370 536 -34 35 -56 61 -77 95
-10 15 -31 35 -48 45 -29 17 -30 17 -58 -2 -38 -27 -36 -64 4 -120 17 -24 34
-46 38 -49 22 -17 233 -289 285 -369 58 -89 259 -471 248 -471 -3 0 1 -10 9
-22 8 -13 32 -61 52 -108 21 -47 47 -105 58 -129 10 -24 28 -67 40 -95 11 -28
25 -62 31 -76 6 -14 11 -27 12 -30 1 -3 9 -23 19 -45 10 -22 19 -48 21 -57 2
-9 8 -25 13 -35 5 -10 17 -38 25 -63 9 -25 35 -97 57 -160 23 -63 43 -119 44
-125 1 -5 24 -76 50 -158 26 -81 50 -159 52 -174 3 -15 7 -30 10 -35 3 -4 7
-17 10 -28 2 -11 7 -30 10 -42 4 -13 8 -66 10 -118 4 -135 -19 -197 -145 -391
-55 -85 -105 -160 -111 -166 -6 -7 -8 -13 -5 -13 5 0 -24 -50 -35 -60 -10 -8
-90 -151 -90 -160 0 -5 -5 -10 -11 -12 -5 -2 -11 -10 -13 -18 -1 -8 -12 -31
-24 -50 -47 -73 -327 -645 -323 -658 1 -1 -5 -15 -13 -31 -9 -16 -36 -80 -62
-142 -25 -63 -51 -125 -57 -139 -6 -14 -11 -27 -12 -30 -1 -3 -5 -14 -10 -25
-59 -152 -148 -390 -159 -430 -2 -5 -6 -17 -9 -25 -16 -38 -97 -293 -102 -317
-2 -15 -9 -39 -14 -53 -23 -58 -88 -349 -111 -495 -6 -38 -20 -95 -31 -125
-19 -51 -27 -176 -15 -235 3 -11 5 -27 6 -35 0 -12 3 -11 11 3 6 9 12 26 14
37 2 11 7 25 10 30 10 17 19 64 28 150 3 25 13 77 22 115 9 39 18 77 20 85 2
8 11 42 20 75 9 33 18 71 21 85 2 14 9 36 14 50 4 14 18 59 30 100 12 41 31
104 42 140 11 36 21 70 23 75 1 6 3 13 5 17 1 4 33 99 71 210 39 112 72 210
74 218 2 8 4 15 5 15 1 0 3 7 5 15 9 41 136 383 146 395 5 5 9 14 9 21 0 7 23
61 51 120 28 60 50 110 50 111 0 2 20 42 45 90 25 49 60 115 77 148 17 33 34
62 37 65 3 3 6 10 7 16 1 7 16 35 33 63 16 29 30 56 30 60 0 5 7 14 15 21 9 7
13 15 10 18 -3 3 -1 10 4 16 12 15 44 72 114 206 33 63 65 118 71 122 6 4 8 8
4 8 -9 0 76 162 110 210 14 19 48 56 75 83 62 59 95 62 143 13 61 -63 81 -119
99 -287 7 -65 6 -62 35 -189 12 -52 24 -106 26 -120 3 -14 7 -36 10 -50 7 -36
41 -228 50 -275 3 -22 8 -53 9 -70 1 -16 5 -41 8 -55 7 -27 17 -112 22 -175 2
-22 4 -40 5 -40 1 0 3 -18 5 -40 2 -22 6 -65 9 -95 6 -70 17 -223 22 -315 5
-87 4 -624 -1 -685 -2 -25 -6 -87 -10 -139 -4 -52 -9 -104 -10 -115 -2 -12 -7
-48 -10 -81 -11 -98 -22 -180 -25 -180 -2 0 -6 -23 -15 -80 -3 -22 -8 -48 -11
-57 -3 -10 -7 -30 -10 -45 -19 -107 -104 -386 -154 -505 -16 -36 -26 -69 -23
-72 4 -3 1 -6 -5 -6 -7 0 -12 -5 -12 -11 0 -16 -122 -263 -132 -267 -4 -2 -8
-9 -8 -15 0 -10 -75 -130 -174 -278 -98 -147 -280 -281 -431 -318 -84 -21 -87
-22 -175 -22 -75 -1 -110 3 -170 16 -8 2 -20 4 -26 4 -6 1 -25 20 -42 43 -52
72 -78 98 -118 117 -37 18 -73 18 -42 0 9 -5 37 -41 63 -81 49 -74 96 -121
121 -121 8 0 14 -3 14 -7 0 -6 78 -37 118 -45 12 -3 32 -8 45 -11 12 -3 66 -8
119 -9 111 -4 192 15 293 69 62 32 223 183 300 281 22 28 42 52 45 55 32 32
190 264 190 279 0 5 6 16 14 23 12 13 109 205 154 308 20 47 72 193 77 219 2
9 10 36 18 61 14 41 26 87 33 116 1 7 10 45 19 85 9 41 19 88 21 104 3 17 9
55 14 85 16 96 26 191 36 340 8 102 12 901 5 914 -2 6 -6 46 -7 90 -3 92 -12
213 -28 381 -6 53 -36 283 -42 315 -2 14 -9 55 -14 91 -5 36 -12 72 -14 80 -3
8 -7 32 -10 54 -3 22 -10 65 -16 95 -6 30 -13 66 -15 80 -3 14 -7 36 -10 50
-3 14 -8 39 -11 55 -3 17 -10 50 -15 75 -6 25 -13 55 -15 67 -2 12 -15 69 -29
125 -13 57 -26 115 -29 131 -2 15 -8 37 -11 48 -4 12 -9 31 -11 42 -2 12 -6
40 -10 62 -10 51 -10 206 -1 266 6 46 23 97 55 169 13 30 155 255 180 286 5 5
42 59 83 120 40 60 77 114 81 119 5 6 48 66 96 134 48 68 104 147 124 175 21
28 46 62 55 76 30 42 216 284 230 298 7 8 26 30 41 50 15 21 29 39 32 42 3 3
30 34 60 70 176 208 228 225 381 127 68 -43 115 -57 182 -52 106 8 143 29 267
155 267 272 395 435 476 603 48 100 46 126 -16 194 -79 86 -84 143 -19 217 22
25 63 62 92 83 29 20 54 40 57 43 3 4 86 67 185 141 99 74 185 139 191 144 6
6 85 64 175 130 225 166 422 312 436 324 7 6 16 11 22 11 5 0 11 4 13 8 2 5
55 46 118 92 63 46 127 94 142 106 35 29 106 62 144 67 42 6 88 -24 107 -72
29 -72 35 -144 42 -566 6 -359 17 -599 30 -665 3 -14 7 -41 10 -60 7 -53 14
-87 25 -115 5 -14 7 -25 5 -25 -9 0 36 -116 78 -198 43 -87 79 -132 137 -174
143 -102 373 -94 474 17 10 11 41 54 69 95 28 41 87 125 131 185 105 142 118
161 172 249 37 61 61 114 118 255 53 128 149 317 179 350 12 13 36 30 54 37
85 36 135 1 204 -144 131 -272 174 -363 211 -442 22 -46 51 -109 66 -140 15
-30 27 -57 28 -60 0 -3 11 -27 24 -55 13 -27 24 -52 25 -55 0 -3 8 -21 17 -40
13 -30 69 -163 99 -237 5 -13 13 -33 18 -45 23 -55 91 -246 97 -273 4 -16 9
-34 13 -40 3 -5 7 -14 8 -20 1 -5 11 -41 21 -80 12 -43 19 -94 17 -133 -3 -69
-16 -98 -119 -277 -32 -55 -72 -127 -90 -160 -17 -33 -33 -62 -36 -65 -4 -3
-24 -36 -45 -75 -21 -38 -42 -71 -47 -73 -4 -2 -8 -7 -8 -12 0 -4 -31 -62 -69
-129 -38 -66 -86 -150 -106 -186 -19 -36 -45 -82 -57 -103 -19 -34 -75 -137
-139 -257 -35 -64 -322 -639 -342 -685 -16 -36 -75 -165 -107 -235 -10 -22
-36 -83 -58 -135 -21 -52 -52 -126 -68 -165 -16 -38 -28 -73 -27 -77 2 -5 -2
-8 -9 -8 -6 0 -9 -3 -5 -6 3 -3 -4 -27 -15 -52 -11 -26 -37 -96 -59 -157 -21
-60 -44 -118 -49 -128 -6 -10 -8 -22 -5 -27 4 -6 1 -10 -4 -10 -6 0 -10 -3
-10 -8 1 -4 0 -10 -1 -14 -1 -5 -3 -11 -4 -15 -1 -5 -26 -80 -55 -168 -29 -88
-53 -168 -54 -177 -1 -10 -4 -18 -7 -18 -4 0 -7 -6 -7 -12 0 -7 -10 -49 -22
-93 -13 -44 -24 -88 -26 -98 -2 -9 -6 -20 -8 -25 -3 -4 -8 -23 -11 -42 -3 -19
-11 -53 -17 -75 -5 -22 -12 -53 -15 -70 -6 -40 -12 -70 -14 -70 -1 0 -3 -9 -4
-20 -2 -11 -6 -42 -11 -70 -12 -76 -12 -75 -19 -150 -4 -38 -9 -86 -11 -105
-6 -48 -7 -359 -1 -390 7 -36 18 -120 20 -158 2 -17 5 -35 9 -38 3 -3 3 -12 0
-20 -3 -8 0 -14 7 -14 6 0 9 -4 5 -9 -10 -18 83 -331 106 -355 5 -6 9 -15 9
-22 0 -12 77 -154 89 -164 3 -3 19 -23 36 -45 33 -44 120 -132 155 -155 12 -8
29 -21 36 -28 8 -7 14 -10 14 -5 0 4 4 3 8 -2 11 -16 119 -65 182 -83 58 -16
225 -22 300 -10 188 29 464 185 649 368 54 54 141 150 141 156 0 3 7 12 15 21
38 38 170 252 234 379 71 143 176 396 196 474 1 3 4 12 8 20 14 38 72 231 81
275 2 6 9 30 16 55 8 25 14 52 14 60 1 8 4 20 8 25 3 6 9 27 12 49 4 21 8 41
11 45 2 4 6 18 8 32 3 13 22 101 42 194 42 192 42 195 50 250 3 22 7 49 9 60
2 11 7 43 10 70 4 28 9 61 11 75 5 34 17 162 21 235 6 103 5 465 -2 570 -3 55
-7 117 -8 137 0 21 -3 38 -6 38 -3 0 -6 19 -6 43 -2 59 -18 212 -24 227 -1 3
-2 8 -2 11 1 6 -15 116 -22 159 -3 14 -7 41 -10 60 -3 19 -8 46 -10 60 -3 14
-7 36 -10 50 -14 81 -20 115 -37 195 -11 52 -17 85 -23 120 -4 18 -32 137 -41
175 -31 120 -87 308 -137 459 -22 68 -41 129 -43 135 -1 6 -5 18 -8 26 -17 46
-66 210 -72 240 -11 60 -5 142 16 199 17 49 73 143 104 175 6 6 31 38 55 71
25 33 47 62 50 65 3 3 44 55 90 115 87 112 107 139 125 159 6 6 26 31 45 56
19 25 38 47 42 48 5 2 8 8 8 13 0 5 11 21 24 36 14 16 62 75 107 133 46 58 88
110 93 117 6 7 22 26 36 43 14 18 33 40 43 51 9 10 17 21 17 24 0 3 8 13 18
23 9 10 33 38 53 63 94 114 237 287 259 312 14 16 37 43 53 60 54 61 21 109
-54 79 -48 -19 -352 -319 -544 -537 -27 -31 -60 -69 -73 -84 -13 -14 -47 -53
-76 -86 -30 -33 -86 -98 -126 -145 -40 -47 -77 -86 -81 -88 -5 -2 -9 -8 -9
-13 0 -5 -8 -17 -17 -27 -10 -10 -33 -36 -51 -57 -220 -264 -238 -279 -341
-280 -60 0 -65 2 -92 35 -18 21 -66 128 -125 280 -114 290 -109 277 -195 475
-24 55 -44 102 -44 105 -1 3 -24 54 -53 114 -29 59 -52 112 -52 117 0 5 -4 9
-10 9 -5 0 -10 7 -10 15 0 14 -38 91 -153 305 -22 41 -50 91 -61 110 -12 19
-33 56 -46 83 -14 26 -28 47 -32 47 -5 0 -8 4 -8 9 0 16 -43 57 -77 75 -65 33
-159 9 -171 -44 -2 -8 -8 -18 -14 -21 -5 -3 -9 -9 -8 -13 4 -15 -12 -66 -21
-66 -6 0 -8 -4 -4 -9 3 -5 1 -12 -5 -16 -5 -3 -10 -13 -10 -20 0 -8 -13 -42
-29 -75 -16 -33 -27 -60 -25 -60 2 0 -5 -17 -16 -37 -11 -21 -20 -42 -20 -47
0 -10 -132 -272 -179 -356 -17 -30 -34 -63 -37 -72 -4 -10 -10 -18 -15 -18 -5
0 -9 -6 -9 -13 0 -18 -101 -168 -159 -237 -96 -114 -222 -214 -308 -244 -87
-31 -174 3 -215 83 -13 25 -23 47 -24 50 0 3 -4 13 -7 21 -7 16 -16 56 -23
103 -2 15 -6 39 -9 55 -3 15 -8 45 -11 67 -3 22 -7 51 -9 65 -7 38 -24 177
-30 250 -3 36 -8 83 -10 105 -8 65 -17 262 -19 372 0 57 -3 103 -6 103 -3 0
-6 28 -7 63 -2 100 -11 235 -15 244 -5 10 -2 105 5 164 13 104 78 216 155 269
85 59 121 110 116 164 -5 53 -22 59 -151 61 -65 1 -125 0 -134 -2z m-2026
-2015 c51 -27 54 -71 10 -147 -36 -62 -192 -215 -289 -283 -144 -101 -221
-130 -274 -103 -22 11 -27 20 -24 44 10 89 125 237 224 290 119 63 189 109
238 154 28 28 52 46 52 41 0 -4 5 -3 12 4 15 15 24 15 51 0z m4412 -1410 c32
-21 73 -96 85 -153 1 -5 5 -14 10 -20 4 -5 11 -25 15 -43 4 -18 13 -45 21 -60
8 -15 14 -32 14 -38 0 -6 9 -40 21 -75 11 -35 22 -73 24 -83 3 -10 9 -33 14
-50 6 -17 13 -42 15 -56 3 -14 16 -72 30 -130 14 -58 27 -122 30 -142 2 -21 7
-42 10 -47 3 -5 8 -29 11 -52 6 -44 10 -71 20 -119 2 -13 7 -42 10 -65 3 -22
8 -51 10 -65 2 -14 7 -44 10 -67 3 -24 8 -62 11 -85 3 -24 7 -59 9 -78 2 -19
6 -53 9 -75 3 -22 8 -62 11 -90 3 -27 7 -68 10 -90 2 -22 7 -65 11 -96 8 -77
9 -307 0 -459 -14 -249 -22 -367 -31 -455 -3 -22 -7 -60 -9 -85 -5 -45 -33
-243 -42 -290 -7 -42 -15 -91 -19 -119 -2 -14 -4 -26 -5 -26 -1 0 -3 -7 -5
-15 -1 -8 -9 -42 -16 -75 -7 -33 -14 -64 -15 -70 -1 -5 -3 -12 -4 -15 -1 -3
-3 -12 -5 -20 -12 -58 -78 -295 -92 -330 -4 -8 -7 -17 -8 -20 -31 -122 -241
-591 -305 -680 -11 -15 -20 -31 -20 -35 0 -32 -236 -337 -302 -390 -12 -10
-115 -93 -148 -119 -68 -54 -262 -152 -351 -177 -24 -7 -51 -14 -59 -17 -8 -2
-61 -6 -117 -8 -75 -2 -114 1 -145 12 -24 9 -47 17 -53 18 -23 6 -85 40 -85
48 0 4 -5 8 -10 8 -17 0 -79 61 -125 122 -37 49 -85 137 -117 213 -33 80 -82
270 -93 365 -4 30 -8 57 -10 60 -17 29 -24 378 -11 520 5 47 9 99 10 115 1 17
4 35 7 40 3 6 6 21 7 35 1 20 25 142 47 245 7 28 57 201 94 320 17 55 33 107
35 115 3 8 21 62 41 120 20 58 38 112 40 120 7 27 75 225 85 245 5 11 19 47
31 80 12 33 26 71 32 85 6 14 11 27 12 30 2 5 10 27 28 75 7 17 11 33 9 38 -1
4 2 7 8 7 5 0 10 7 10 15 0 8 8 34 19 58 25 57 43 102 42 104 0 2 27 65 70
161 10 23 27 61 38 85 71 161 101 226 153 332 32 66 64 129 70 140 7 11 32 58
56 105 24 47 59 110 78 141 19 31 34 62 34 68 0 6 4 11 9 11 5 0 12 11 15 25
4 14 11 25 16 25 6 0 10 5 10 11 0 6 21 45 46 87 74 122 208 336 217 347 5 6
38 56 75 112 69 105 77 118 125 184 15 21 27 41 27 44 0 7 30 43 67 80 38 39
84 43 128 13z"/>
<path d="M8954 6398 c-67 -54 -164 -183 -164 -220 0 -10 11 -23 24 -30 51 -23
151 62 209 179 26 52 29 64 18 77 -19 22 -54 20 -87 -6z"/>
<path d="M11 1144 c1 -189 2 -197 16 -154 22 68 23 79 24 160 0 66 -20 172
-35 188 -3 3 -6 -84 -5 -194z"/>
</g>
</svg>
