<svg opacity=".1" xmlns="http://www.w3.org/2000/svg" viewBox="0 0 172 352"><title>Asset 1</title><g id="Layer_2" data-name="Layer 2"><g id="Layer_1-2" data-name="Layer 1"><g id="Group-29"><path id="Fill-1" d="M43.53,348.29q13.63.66,27.26,1.36,11.58.56,23.15,1.11c4,.19,8,.43,12.08.62,4.48.22,9,.39,13.44.61a7.16,7.16,0,0,0,4.68-1.38c.37-.27.76-.52,1.13-.78l20.78-14.4c1.67-1.15,3.33-2.33,5-3.49a5.06,5.06,0,0,0,2.34-4.17c0-.79.07-1.57.08-2.36.05-2.25,0-4.49-.07-6.74,0-1.6-.08-3.21-.08-4.81q-.07-32.14-.09-64.27v-.9c0-1.4,0-2.8-.09-4.19a6.21,6.21,0,0,1,.07-1.49,2.2,2.2,0,0,1,1.95-2,14.7,14.7,0,0,1,2-.16c2.61,0,5.23-.06,7.85-.09.54,0,1.08,0,1.62,0a4,4,0,0,0,4.08-4c0-.24,0-.49,0-.74,0-3.48.1-7,.17-10.44.12-6.25.1-12.51.23-18.76.15-7.58.15-15.17.28-22.75.14-8.49.21-17,.3-25.47q.15-13.25.28-26.48a18.71,18.71,0,0,0-.11-2.48,3.59,3.59,0,0,0-2.9-3.18,11.38,11.38,0,0,0-2.47-.25c-5-.1-10.06-.18-15.08-.29-2.08,0-4.15-.1-6.23-.19s-2.85-.85-2.94-3c0-.41,0-.82,0-1.24,0-5.94,0-11.87,0-17.81,0-11,0-21.93.18-32.9.08-6.11.09-12.22.09-18.34,0-4.41,0-8.82,0-13.23a9.31,9.31,0,0,0-2-6c-4.51-5.9-9-11.85-13.4-17.79-3.19-4.24-6.4-8.47-9.53-12.76A5.72,5.72,0,0,0,112,.05c-3.38.35-6.79.55-10.18.81L72.24,3.21Q55.91,4.5,39.57,5.83L5,8.6a12.22,12.22,0,0,0-1.48.19A3.92,3.92,0,0,0,0,12.69c0,.54,0,1.08,0,1.62v.12C0,17.7.08,21,.16,24.24c.14,6,.1,12,.25,18s.1,12.27.25,18.4.1,12,.25,18S1,90.94,1.16,97.07c.2,10.11.25,20.22.36,30.32a16,16,0,0,0,.23,2.85,3.69,3.69,0,0,0,2.52,3c.43.15.87.29,1.31.4l32.9,8.65c.4.1.81.21,1.2.34,1.77.59,2.35,1.33,2.44,3.16,0,.7,0,1.41,0,2.11-.14,12.43,0,24.86-.21,37.29-.12,8-.12,16-.11,24q0,5.58,0,11.17c0,.82,0,1.66-.09,2.48a2.91,2.91,0,0,1-1.79,2.5c-.61.28-1.22.52-1.85.75l-17.8,6.47c-1,.35-1.94.74-2.89,1.16A4,4,0,0,0,15,237.32c-.06,1-.06,2-.05,3q.13,8,.28,16c.14,7.83.31,15.66.44,23.49.12,6.87.2,13.75.31,20.63q.22,13.67.46,27.34c.09,5,.15,9.94.29,14.91.08,2.82,1.5,4.24,4.32,4.47,1.57.13,3.14.2,4.72.28Q34.63,347.87,43.53,348.29ZM109.64,63.9c.14-4.18.13-8.74.12-13.47,0-4.35,0-8.85.08-13.35.14-5.94.13-11.87.12-17.81,0-2.52,0-5,0-7.55,0-.49,0-1,0-1.49a2.25,2.25,0,0,0-2.43-2.29,6.55,6.55,0,0,0-1,0l-8.82.68L59,11.76q-22.66,1.82-45.34,3.6c-1.28.11-2.57.2-3.84.39a2.39,2.39,0,0,0-2.28,2.51,6.55,6.55,0,0,0,0,1c.23,7.12.14,14.25.32,21.38.2,7.95.21,15.9.31,23.86,0,1,0,2,0,3,0,1.89,0,3.78.07,5.68.28,7.28.17,14.58.35,21.86.23,9.07.25,18.15.37,27.22,0,2.86.92,3.66,3.81,3.56q8.73-.3,17.44-.58c9.38-.29,18.77-.53,28.15-.87q4.55-.16,9.09-.28c6.23-.16,12.46-.41,18.68-.61,6.4-.21,12.79-.38,19.18-.59a16.54,16.54,0,0,0,2-.19,2.26,2.26,0,0,0,1.92-1.87,8.25,8.25,0,0,0,.15-1.86q.14-22.49.25-45c0-1.91,0-3.82,0-6.12Zm7.52,6.72c-.19,7.83,0,15.66-.21,23.49-.13,6-.12,12-.12,18q0,3.81,0,7.6c0,.63,0,1.25.06,1.87a3.19,3.19,0,0,0,1.74,2.69,7.65,7.65,0,0,0,3.46.93c1.16,0,2.32.12,3.48.15l.91,0c1.74,0,3.47.07,5.2,0,2,0,2.77-.75,3-2.73.13-1.45.17-2.9.18-4.35q0-22.32.08-44.62c0-4.23,0-8.45.11-12.68.09-4.44.07-8.89.06-13.34h0q0-3.37,0-6.75a7.17,7.17,0,0,0-1.5-4.51Q127.23,28,120.93,19.59a6.31,6.31,0,0,0-1.29-1.34,1.18,1.18,0,0,0-2,.69,7.39,7.39,0,0,0-.22,2.1v.24q-.12,21.44-.25,42.88c0,1.48,0,3,0,4.44C117.16,69.28,117.16,70,117.16,70.62ZM66.3,182.74c0,1.56-.07,3.11-.12,4.67-.08,2.25-.15,4.51-.15,6.76,0,5.38,0,10.76,0,16.14h0l0,5.87c0,.66,0,1.32-.07,2-.17,4.27-.12,8.54,0,12.8,0,2.11.76,2.84,2.85,3,1.36.11,2.73.13,4.1.13q15.27,0,30.54-.2c9.72-.15,19.44-.14,29.16-.26,9.1-.11,18.2-.11,27.3-.28a7.21,7.21,0,0,0,1.73-.17,2.13,2.13,0,0,0,1.64-1.69,6.13,6.13,0,0,0,.14-1.35c0-2.12.13-4.23.15-6.34.09-7.25.11-14.5.27-21.75.13-6,.09-12,.22-18,.18-8.49.2-17,.29-25.48.05-4.22,0-8.45.17-12.67.08-2.79.07-5.56.07-8.35h0c0-.37,0-.73,0-1.1a4.77,4.77,0,0,0-.11-1,2.11,2.11,0,0,0-1.81-1.81,12.72,12.72,0,0,0-1.85-.17c-3.7-.12-7.4-.16-11.1-.24-7.93-.18-15.86-.31-23.79-.5-8.31-.21-16.62-.35-24.92-.52l-15.58-.29-15-.28a10.39,10.39,0,0,0-1.37.06,2.34,2.34,0,0,0-2.32,2.19,12.32,12.32,0,0,0-.11,1.61c-.14,7.83-.06,15.66-.21,23.49-.11,5.5-.08,11-.06,16.51Q66.3,179.13,66.3,182.74ZM44.93,132.25v-.07h2.86a8.61,8.61,0,0,1,1.24.08c1.5.26,1.89,1.3.92,2.5a4.15,4.15,0,0,1-3.22,1.63,7.11,7.11,0,0,1-1.84-.19,36,36,0,0,1-4.65-1.38,4.23,4.23,0,0,1-1.1-.56c-.71-.54-.61-1.13.24-1.46a6.5,6.5,0,0,1,1.95-.34C42.53,132.38,43.73,132.32,44.93,132.25Zm13.85,46.31c0,1.86-.06,3.73-.25,6.41v3.95h0c0,3.23,0,6.75,0,10.27,0,4.38,0,8.76-.09,13.14s-.13,8.72-.09,13.08v.31a9.82,9.82,0,0,1-.13,2.17,1.63,1.63,0,0,1-2.4,1.34,4.86,4.86,0,0,1-1.11-.57c-1.08-.69-2.15-1.41-3.23-2.11a4.5,4.5,0,0,1-2.23-4.15c.07-4.35.07-8.7.08-13.05,0-1.54,0-3.07,0-4.61,0-2.56,0-5.13,0-7.7.2-13.41.21-26.83.21-40.24q0-4.06,0-8.11a6.42,6.42,0,0,1,2.21-5.17c1.32-1.14,2.54-2.38,3.82-3.57a5.16,5.16,0,0,1,1-.75,1.39,1.39,0,0,1,2.27,1,6.22,6.22,0,0,1,.14,1.36c0,.91,0,1.81,0,2.72,0,2.66,0,5.31-.12,8,0,.49,0,1,0,1.49Q58.82,166.12,58.78,178.56ZM116.47,279c0,4.76.18,9.52.23,14.29,0,1.91,0,3.82,0,5.73,0,4.26,0,8.53,0,12.78.2,9.28.13,18.56.21,27.84,0,.7,0,1.41,0,2.11a2.32,2.32,0,0,1-2.52,2.49,14.81,14.81,0,0,1-1.49,0l-17.67-.87-12-.59-24-1.19L42,340.76,27.27,340a6.42,6.42,0,0,1-.87-.09,2.34,2.34,0,0,1-2.24-2.4c-.13-1.61-.2-3.23-.22-4.84-.13-8.53-.19-17.07-.37-25.6-.2-9.85-.33-19.71-.52-29.57-.09-4.72-.05-9.44-.23-14.16-.23-5.79-.06-11.6-.36-17.39a17.5,17.5,0,0,1,.05-2.61,2.27,2.27,0,0,1,2.4-2.33c.4,0,.81,0,1.21,0h.28c4.61,0,9.23.07,13.84.12,7.93.08,15.86.09,23.79.28,6.4.15,12.8.08,19.19.23,6.89.17,13.79.13,20.68.27,2.91,0,5.81.11,8.72.14s3.52.71,3.57,3.53C116.39,256.71,116.39,267.86,116.47,279Zm7.82,35.37c-.1-7.95-.17-15.91-.2-26.88,0-2.85,0-6.42-.09-10.35-.08-4.18-.16-8.76-.13-13.35,0-3.87,0-7.74,0-11.61h0l0-3.8c0-1-.08-2-.12-3a9.25,9.25,0,0,1,.1-2.23,2.19,2.19,0,0,1,1.8-1.84,11.87,11.87,0,0,1,2-.2q7.09-.06,14.2-.08a10.1,10.1,0,0,1,1.74.1,2.19,2.19,0,0,1,2,2,8.88,8.88,0,0,1,.09,1.36c-.06,4.25,0,8.49.08,12.74.05,3.13.1,6.25.1,9.38q0,27.6.07,55.18c0,.38,0,.76,0,1.14h0c0,.41,0,.81,0,1.22a4,4,0,0,1-1.67,3.31q-.94.71-1.92,1.38l-13.2,9.15a15.26,15.26,0,0,1-1.79,1.12c-1.47.74-2.53.18-2.78-1.45a14.4,14.4,0,0,1-.1-1.86C124.36,328.7,124.38,321.53,124.29,314.37Z" style="fill:#000;fill-rule:evenodd"/><path id="Fill-3" d="M60.45,28.88c-.63-.09-1.26-.1-1.88-.14-4,0-6.71,1.58-8.31,5.35-4,9.31-8.15,18.54-12.24,27.8q-5.75,13-11.47,26a16.3,16.3,0,0,0-1.32,3.61A7.54,7.54,0,0,0,36.6,99.41a7.75,7.75,0,0,0,2.89-3.2c.77-1.55,1.56-3.11,2.24-4.7a4.32,4.32,0,0,1,4.48-2.88c2.7,0,5.4,0,8.1-.12l1.7-.05c3.48-.1,7,0,10.44-.2,1.47-.08,3-.07,4.43-.06h1.86a3.45,3.45,0,0,1,3.33,2c.68,1.32,1.34,2.66,2,4a18,18,0,0,0,1.18,2A7.58,7.58,0,0,0,88.68,99a7.5,7.5,0,0,0,4.21-9,15.32,15.32,0,0,0-1-2.54Q87,77,82,66.52q-6-12.85-12.11-25.7c-1.31-2.76-2.52-5.57-4-8.27A6.94,6.94,0,0,0,60.45,28.88Zm.09,46.41h-2a46.31,46.31,0,0,1-5.52.21,7.55,7.55,0,0,1-2.12-.25,1.53,1.53,0,0,1-1.18-1.79A4.52,4.52,0,0,1,50.16,72q3.23-7.5,6.47-15A5.19,5.19,0,0,1,57.24,56a1.47,1.47,0,0,1,2.38-.14,3.72,3.72,0,0,1,.75,1.13c2.3,4.89,4.62,9.78,6.88,14.7,1.1,2.38.4,3.52-2.28,3.63C63.5,75.32,62,75.31,60.54,75.29Z" style="fill:#000;fill-rule:evenodd"/><path id="Fill-5" d="M100.33,45.1q0,11.11,0,22.24a15.23,15.23,0,0,1-.13,2.34,2.34,2.34,0,0,1-2.34,2.16,2.38,2.38,0,0,1-2.44-2.07,11.26,11.26,0,0,1-.15-2.46V39c0-4.2-.26-8.4-.19-12.6a6.37,6.37,0,0,0-.07-1,2.17,2.17,0,0,0-2.16-2,8.35,8.35,0,0,0-1.5,0L78.08,24.47a31.3,31.3,0,0,1-3.63.15c-1.65-.06-2.66-.86-2.77-2.13s.74-2.37,2.39-2.66c2.31-.41,4.66-.46,7-.66,4.79-.4,9.59-.76,14.39-1.14a9.48,9.48,0,0,1,2.13,0,2.65,2.65,0,0,1,2.49,2.38,15.25,15.25,0,0,1,.16,2.34c0,7.46,0,14.91,0,22.37Z" style="fill:#000"/><path id="Fill-7" d="M58.5,113.59l-24.29,1c-2.88.12-5.75.22-8.63.31a12.67,12.67,0,0,1-1.85-.06A2.21,2.21,0,0,1,21.51,113c-.1-1.06.61-1.9,1.89-2.24a8.73,8.73,0,0,1,1.83-.23c2.8-.12,5.59-.26,8.39-.37,8-.33,16-.63,24-1l33.91-1.43c.82,0,1.64,0,2.47,0a3.35,3.35,0,0,1,1.53.37,1.94,1.94,0,0,1,1.18,1.9,2,2,0,0,1-1.32,1.72,5.15,5.15,0,0,1-1.79.37l-6.78.33-18.62.74c-3.25.13-6.49.28-9.74.42v0" style="fill:#000"/><path id="Fill-9" d="M18,50.57c-.16-6-.06-12.13-.09-18.26,0-.67,0-1.35,0-2,.1-2.3,1-3.26,3.37-3.6,1.21-.18,2.43-.26,3.65-.37l12-1a20.46,20.46,0,0,1,3.41-.1A2.41,2.41,0,0,1,40.92,30a10,10,0,0,1-1.8.31c-3.87.35-7.75.68-11.62,1-.57.05-1.14.11-1.69.21a2.73,2.73,0,0,0-2.55,2.77,10.61,10.61,0,0,0,0,1.26q.11,17,.22,34.07c0,1,0,1.94,0,2.91a3.13,3.13,0,0,1-.64,1.9,2.46,2.46,0,0,1-4.2-.36,3.89,3.89,0,0,1-.38-1.34A25.89,25.89,0,0,1,18,69.3V50.57" style="fill:#000"/><path id="Fill-11" d="M73.78,323.27a34.1,34.1,0,1,1,23.75-58.08,8.23,8.23,0,0,1,2.59,6.6,6.49,6.49,0,0,1-5.67,6,6.87,6.87,0,0,1-6-2,30.24,30.24,0,0,0-3.37-3,19.74,19.74,0,0,0-27.52,3.81c-5,6.46-5.94,13.65-2.43,21.05s9.68,11.55,18,11.78c5.42.15,10-2,14-5.61a28.32,28.32,0,0,1,2.16-1.93,7,7,0,0,1,5-1.41,6.85,6.85,0,0,1,4.91,10.61,15.72,15.72,0,0,1-3.11,3.45,33.22,33.22,0,0,1-20.2,8.62l-2.13.15" style="fill:#000"/><path id="Fill-13" d="M45.52,333.74l-8.06-.28a18.61,18.61,0,0,1-2.11-.21,2.87,2.87,0,0,1-2.68-2.78,16.47,16.47,0,0,1-.17-2.22q-.14-7.67-.25-15.32a7.56,7.56,0,0,1,.15-2,2.49,2.49,0,0,1,2.4-2.07,2.31,2.31,0,0,1,2.27,2,17.71,17.71,0,0,1,.32,3.78c0,3.1,0,6.2.08,9.3,0,3.39.72,4.12,4,4.25l12.29.49a6.09,6.09,0,0,1,1.84.28,2.54,2.54,0,0,1,1.77,2.55,2.43,2.43,0,0,1-2,2.33,6.76,6.76,0,0,1-1.85.12l-7.95-.28Z" style="fill:#000"/><path id="Fill-15" d="M28.67,260.46V252.4c0-.44,0-.88,0-1.32.15-2.07,1-3,3.1-3.18,1.3-.09,2.61-.07,3.91,0,4.69.12,9.38.27,14.07.41a7.53,7.53,0,0,1,2.06.23,2.48,2.48,0,0,1,1.9,2.52,2.39,2.39,0,0,1-2,2.38,9.1,9.1,0,0,1-2.33.19c-3.52-.08-7-.18-10.55-.25a20.48,20.48,0,0,0-2.6.09,2.24,2.24,0,0,0-2.15,2.11,9.24,9.24,0,0,0-.06,1.58c.05,3.92.12,7.84.17,11.75A7.75,7.75,0,0,1,34,271a2.4,2.4,0,0,1-2.42,2,2.43,2.43,0,0,1-2.44-2,6.29,6.29,0,0,1-.19-1.56c0-3-.31-6-.28-9" style="fill:#000"/><path id="Fill-17" d="M96.56,330.22H89.68a6.14,6.14,0,0,1-2.09-.28,2,2,0,0,1,.17-4,6.88,6.88,0,0,1,1.86-.19l6.88.06c1,0,2,0,3,0,2-.09,2.71-.77,2.79-2.48,0-.77,0-1.55,0-2.32s0-1.26,0-1.89a5.15,5.15,0,0,1,.12-1.1,2.45,2.45,0,0,1,4.78,0,5,5,0,0,1,.1.66,82.52,82.52,0,0,1,.21,8.75c0,2-1.11,2.94-3.42,3-2.51.12-5-.22-7.5-.2" style="fill:#000"/><path id="Fill-19" d="M100.06,247.84c1.07,0,2.15,0,3.23,0a9.63,9.63,0,0,1,1.61.13,2.76,2.76,0,0,1,2.41,2.58,8,8,0,0,1,.1,1q.06,3.74.09,7.47a5.38,5.38,0,0,1-.16,1.33,2.16,2.16,0,0,1-4.26.09,6.92,6.92,0,0,1-.21-1.82c0-1,0-2-.14-3.05-.2-1.91-.85-2.57-2.67-2.7-1.19-.09-2.39-.06-3.58-.09a4.88,4.88,0,0,1-1.82-.27,2.28,2.28,0,0,1-1.49-2.25,2.25,2.25,0,0,1,1.59-2.16,4.85,4.85,0,0,1,1.6-.23h3.7Z" style="fill:#000"/><path id="Fill-21" d="M98.08,215.51h20.59a24,24,0,0,0,7.46-1.23,19.07,19.07,0,0,0,13.62-18.9c.09-5.75-1.76-10.52-6.28-14.11-1.52-1.21-1.59-2.21-.48-3.8.21-.3.43-.6.65-.89A13.42,13.42,0,0,0,136,172c1.94-7.11.62-13.48-4.22-19a14.67,14.67,0,0,0-7.78-4.64,28.1,28.1,0,0,0-6.44-.85c-2.46,0-4.92-.07-7.38-.11-4.08-.08-8.16-.17-12.24-.1a15.47,15.47,0,0,0-1.68.1,6.93,6.93,0,0,0-6.38,7q-.19,3.15-.18,6.28,0,15.15,0,30.3c0,5.26-.05,10.52-.07,15.77a20.16,20.16,0,0,0,.12,2.46,7,7,0,0,0,5.86,6.18A14.11,14.11,0,0,0,98.08,215.51Zm13.7-40.38v-.07l1.69,0a30.76,30.76,0,0,0,3.72-.06,6.7,6.7,0,0,0,6-4.91,7.19,7.19,0,0,0-2.24-7.56,7.07,7.07,0,0,0-4.67-1.71c-2.42,0-4.85,0-7.28,0h-2.11a5.2,5.2,0,0,0-1,.09,2,2,0,0,0-1.86,2,79.21,79.21,0,0,0,0,10.22A2,2,0,0,0,106,175a7.63,7.63,0,0,0,1.44.11h4.33Zm.55,27.52v0l1.73,0c1.27,0,2.54,0,3.8,0a8,8,0,0,0,0-15.94l-1.17,0c-3.06-.12-6.11-.24-9.17-.16l-.84,0c-2,.19-2.58.88-2.71,2.89-.21,3.2-.19,6.4-.16,9.6a9.47,9.47,0,0,0,.13,1.59,2.08,2.08,0,0,0,1.74,1.8,9.89,9.89,0,0,0,1.79.19c1.16,0,2.33,0,3.49,0Z" style="fill:#000;fill-rule:evenodd"/><path id="Fill-23" d="M75.38,183.78c0-11.8,0-22.92,0-34,0-1.93,0-3.86.06-5.79a10.61,10.61,0,0,1,.18-2.11c.21-1.06.71-1.69,1.36-1.75s1.28.52,1.57,1.52a7.63,7.63,0,0,1,.26,2.09c0,2.48,0,5,0,7.43,0,1.63-.08,3.27-.08,4.9q0,11.72,0,23.42,0,21,0,41.91a21.09,21.09,0,0,1-.13,2.76c-.18,1.36-.77,2.17-1.57,2.17s-1.4-.81-1.58-2.17a17.09,17.09,0,0,1-.13-2.38c0-8.1-.06-16.2,0-24.29,0-4.78.06-9.57.08-13.67" style="fill:#000"/><path id="Fill-25" d="M153.72,167.24c-.1,6.4-.18,12.8-.29,19.2,0,1.57-.14,3.14-.22,4.71a3.38,3.38,0,0,1-.41,1.55,2.45,2.45,0,0,1-2.28,1.26,2.4,2.4,0,0,1-2.23-1.34,4.32,4.32,0,0,1-.42-2.18c0-2.76,0-5.53.11-8.3.15-2.93.12-5.86.17-8.79.12-6.73.21-13.46.33-20.19,0-1.29.11-2.56.15-3.84a8.16,8.16,0,0,0,0-1c-.13-2.15-.89-2.85-3.19-3-2.76-.22-5.53-.1-8.3-.2a19,19,0,0,1-2-.12c-1.6-.23-2.56-1.17-2.55-2.43s1-2.19,2.57-2.38a11.78,11.78,0,0,1,1.88-.07c4.37.07,8.75,0,13.12.24a10.3,10.3,0,0,1,1.46.14,2.76,2.76,0,0,1,2.39,2.37,11.41,11.41,0,0,1,.08,1.85q-.15,11.28-.33,22.55h0" style="fill:#000"/><path id="Fill-27" d="M146.42,222.69h-2.75c-.44,0-.87,0-1.31-.05-1.61-.18-2.56-1.06-2.61-2.39a2.57,2.57,0,0,1,2.4-2.61,16.2,16.2,0,0,1,2.08-.17c.7,0,1.41,0,2.1-.1a2.34,2.34,0,0,0,2.27-2.27c.09-.77.06-1.55.08-2.33a10,10,0,0,1,.3-2.56,2.45,2.45,0,0,1,2.5-1.88,2.4,2.4,0,0,1,2.31,1.94,4.93,4.93,0,0,1,.18,1.14,51.93,51.93,0,0,1-.07,7.89c-.23,2.25-1.12,3.13-3.43,3.29-1.34.09-2.7,0-4.05,0Z" style="fill:#000"/></g></g></g></svg>